<svg xmlns="http://www.w3.org/2000/svg" xmlns:xlink="http://www.w3.org/1999/xlink" width="800" zoomAndPan="magnify" viewBox="0 0 600 472.499986" height="630" preserveAspectRatio="xMidYMid meet" version="1.0"><defs><g/><clipPath id="4198ee716c"><path d="M 136.277344 11.296875 L 463.679688 11.296875 L 463.679688 338.703125 L 136.277344 338.703125 Z M 136.277344 11.296875 " clip-rule="nonzero"/></clipPath><clipPath id="029db5707e"><path d="M 247.140625 122.164062 L 352.78125 122.164062 L 352.78125 227.800781 L 247.140625 227.800781 Z M 247.140625 122.164062 " clip-rule="nonzero"/></clipPath></defs><g clip-path="url(#4198ee716c)"><path fill="#000000" d="M 299.980469 325.660156 C 216.90625 325.660156 149.324219 258.074219 149.324219 175 C 149.324219 91.925781 216.90625 24.34375 299.980469 24.34375 C 383.054688 24.34375 450.636719 91.925781 450.636719 175 C 450.636719 258.074219 383.054688 325.660156 299.980469 325.660156 Z M 450.816406 111.28125 C 442.570312 91.785156 430.765625 74.277344 415.734375 59.246094 C 400.703125 44.210938 383.195312 32.410156 363.699219 24.164062 C 343.515625 15.625 322.078125 11.296875 299.980469 11.296875 C 277.882812 11.296875 256.441406 15.625 236.257812 24.164062 C 216.761719 32.410156 199.257812 44.210938 184.222656 59.246094 C 169.191406 74.277344 157.390625 91.785156 149.144531 111.28125 C 140.609375 131.464844 136.277344 152.902344 136.277344 175 C 136.277344 197.097656 140.609375 218.539062 149.144531 238.722656 C 157.390625 258.21875 169.191406 275.722656 184.222656 290.753906 C 199.257812 305.789062 216.761719 317.589844 236.257812 325.835938 C 256.441406 334.375 277.882812 338.703125 299.980469 338.703125 C 322.078125 338.703125 343.515625 334.375 363.699219 325.835938 C 383.195312 317.589844 400.703125 305.789062 415.734375 290.753906 C 430.765625 275.722656 442.570312 258.21875 450.816406 238.722656 C 459.351562 218.539062 463.679688 197.097656 463.679688 175 C 463.679688 152.902344 459.351562 131.464844 450.816406 111.28125 " fill-opacity="1" fill-rule="nonzero"/></g><path fill="#000000" d="M 378.4375 230.265625 L 306.5 171.890625 L 306.5 94.472656 C 306.5 90.871094 303.582031 87.953125 299.980469 87.953125 C 296.378906 87.953125 293.457031 90.871094 293.457031 94.472656 L 293.457031 175 C 293.457031 176.96875 294.34375 178.828125 295.867188 180.066406 L 370.21875 240.394531 C 371.429688 241.375 372.882812 241.851562 374.324219 241.851562 C 376.222656 241.851562 378.105469 241.027344 379.394531 239.4375 C 381.664062 236.640625 381.238281 232.535156 378.4375 230.265625 " fill-opacity="1" fill-rule="nonzero"/><g clip-path="url(#029db5707e)"><path fill="#ff3131" d="M 347.667969 169.871094 L 339.566406 169.871094 C 337.261719 151.917969 323.023438 137.683594 305.074219 135.375 L 305.074219 127.273438 C 305.074219 124.453125 302.785156 122.164062 299.960938 122.164062 C 297.136719 122.164062 294.847656 124.453125 294.847656 127.273438 L 294.847656 135.375 C 276.898438 137.683594 262.660156 151.917969 260.355469 169.871094 L 252.253906 169.871094 C 249.429688 169.871094 247.140625 172.160156 247.140625 174.980469 C 247.140625 177.804688 249.429688 180.09375 252.253906 180.09375 L 260.355469 180.09375 C 262.660156 198.042969 276.898438 212.28125 294.847656 214.589844 L 294.847656 222.691406 C 294.847656 225.511719 297.136719 227.800781 299.960938 227.800781 C 302.785156 227.800781 305.074219 225.511719 305.074219 222.691406 L 305.074219 214.589844 C 323.023438 212.28125 337.261719 198.046875 339.566406 180.09375 L 347.667969 180.09375 C 350.492188 180.09375 352.78125 177.804688 352.78125 174.980469 C 352.78125 172.160156 350.492188 169.871094 347.667969 169.871094 Z M 305.074219 204.257812 L 305.074219 196.992188 C 305.074219 194.171875 302.785156 191.878906 299.960938 191.878906 C 297.136719 191.878906 294.847656 194.171875 294.847656 196.992188 L 294.847656 204.257812 C 282.542969 202.113281 272.828125 192.398438 270.683594 180.09375 L 277.949219 180.09375 C 280.773438 180.09375 283.0625 177.804688 283.0625 174.980469 C 283.0625 172.160156 280.773438 169.871094 277.949219 169.871094 L 270.683594 169.871094 C 272.828125 157.5625 282.542969 147.851562 294.847656 145.707031 L 294.847656 152.972656 C 294.847656 155.792969 297.136719 158.082031 299.960938 158.082031 C 302.785156 158.082031 305.074219 155.792969 305.074219 152.972656 L 305.074219 145.707031 C 317.378906 147.851562 327.09375 157.5625 329.238281 169.871094 L 321.972656 169.871094 C 319.148438 169.871094 316.859375 172.160156 316.859375 174.980469 C 316.859375 177.804688 319.148438 180.09375 321.972656 180.09375 L 329.238281 180.09375 C 327.09375 192.398438 317.378906 202.113281 305.074219 204.257812 Z M 305.074219 204.257812 " fill-opacity="1" fill-rule="nonzero"/></g><g fill="#000000" fill-opacity="1"><g transform="translate(72.276277, 381.19817)"><g><path d="M 12.390625 -16.53125 L 12.390625 0 L 3 0 L 3 -41.21875 L 12.390625 -41.21875 L 12.390625 -24.78125 L 25.671875 -24.78125 L 25.671875 -41.21875 L 35.0625 -41.21875 L 35.0625 0 L 25.671875 0 L 25.671875 -16.53125 Z M 12.390625 -16.53125 "/></g></g></g><g fill="#000000" fill-opacity="1"><g transform="translate(109.680697, 381.19817)"><g><path d="M 5.421875 -3.046875 C 2.578125 -5.578125 1.15625 -8.820312 1.15625 -12.78125 C 1.15625 -16.75 2.632812 -20.003906 5.59375 -22.546875 C 8.5625 -25.097656 12.222656 -26.375 16.578125 -26.375 C 20.878906 -26.375 24.503906 -25.09375 27.453125 -22.53125 C 30.398438 -19.96875 31.875 -16.71875 31.875 -12.78125 C 31.875 -8.851562 30.429688 -5.613281 27.546875 -3.0625 C 24.671875 -0.519531 21.015625 0.75 16.578125 0.75 C 11.984375 0.75 8.265625 -0.515625 5.421875 -3.046875 Z M 12.265625 -17.125 C 11.117188 -16 10.546875 -14.550781 10.546875 -12.78125 C 10.546875 -11.019531 11.09375 -9.582031 12.1875 -8.46875 C 13.289062 -7.351562 14.738281 -6.796875 16.53125 -6.796875 C 18.257812 -6.796875 19.679688 -7.359375 20.796875 -8.484375 C 21.921875 -9.617188 22.484375 -11.050781 22.484375 -12.78125 C 22.484375 -14.550781 21.90625 -16 20.75 -17.125 C 19.601562 -18.257812 18.195312 -18.828125 16.53125 -18.828125 C 14.832031 -18.828125 13.410156 -18.257812 12.265625 -17.125 Z M 12.265625 -17.125 "/></g></g></g><g fill="#000000" fill-opacity="1"><g transform="translate(142.04123, 381.19817)"><g><path d="M 18.734375 0 L 12.734375 0 L -1 -25.625 L 9.1875 -25.625 L 15.4375 -11.78125 L 21.578125 -25.625 L 27.671875 -25.625 L 33.8125 -11.78125 L 40.0625 -25.625 L 50.25 -25.625 L 36.515625 0 L 30.515625 0 L 24.625 -13.234375 Z M 18.734375 0 "/></g></g></g><g fill="#000000" fill-opacity="1"><g transform="translate(190.632073, 381.19817)"><g/></g></g><g fill="#000000" fill-opacity="1"><g transform="translate(203.61612, 381.19817)"><g><path d="M 3 0 L 3 -42.953125 L 11.84375 -42.953125 L 11.84375 0 Z M 3 0 "/></g></g></g><g fill="#000000" fill-opacity="1"><g transform="translate(217.798708, 381.19817)"><g><path d="M 5.421875 -3.046875 C 2.578125 -5.578125 1.15625 -8.820312 1.15625 -12.78125 C 1.15625 -16.75 2.632812 -20.003906 5.59375 -22.546875 C 8.5625 -25.097656 12.222656 -26.375 16.578125 -26.375 C 20.878906 -26.375 24.503906 -25.09375 27.453125 -22.53125 C 30.398438 -19.96875 31.875 -16.71875 31.875 -12.78125 C 31.875 -8.851562 30.429688 -5.613281 27.546875 -3.0625 C 24.671875 -0.519531 21.015625 0.75 16.578125 0.75 C 11.984375 0.75 8.265625 -0.515625 5.421875 -3.046875 Z M 12.265625 -17.125 C 11.117188 -16 10.546875 -14.550781 10.546875 -12.78125 C 10.546875 -11.019531 11.09375 -9.582031 12.1875 -8.46875 C 13.289062 -7.351562 14.738281 -6.796875 16.53125 -6.796875 C 18.257812 -6.796875 19.679688 -7.359375 20.796875 -8.484375 C 21.921875 -9.617188 22.484375 -11.050781 22.484375 -12.78125 C 22.484375 -14.550781 21.90625 -16 20.75 -17.125 C 19.601562 -18.257812 18.195312 -18.828125 16.53125 -18.828125 C 14.832031 -18.828125 13.410156 -18.257812 12.265625 -17.125 Z M 12.265625 -17.125 "/></g></g></g><g fill="#000000" fill-opacity="1"><g transform="translate(250.159241, 381.19817)"><g><path d="M 3 0 L 3 -25.625 L 11.84375 -25.625 L 11.84375 -22.921875 L 11.9375 -22.921875 C 14.238281 -25.222656 16.6875 -26.375 19.28125 -26.375 C 20.550781 -26.375 21.804688 -26.207031 23.046875 -25.875 C 24.296875 -25.539062 25.492188 -25.023438 26.640625 -24.328125 C 27.796875 -23.628906 28.726562 -22.640625 29.4375 -21.359375 C 30.15625 -20.078125 30.515625 -18.585938 30.515625 -16.890625 L 30.515625 0 L 21.6875 0 L 21.6875 -14.484375 C 21.6875 -15.816406 21.257812 -16.984375 20.40625 -17.984375 C 19.550781 -18.984375 18.441406 -19.484375 17.078125 -19.484375 C 15.742188 -19.484375 14.535156 -18.96875 13.453125 -17.9375 C 12.378906 -16.90625 11.84375 -15.753906 11.84375 -14.484375 L 11.84375 0 Z M 3 0 "/></g></g></g><g fill="#000000" fill-opacity="1"><g transform="translate(282.519785, 381.19817)"><g><path d="M 1.84375 6.296875 L 9.09375 2.75 C 10.425781 4.945312 12.738281 6.046875 16.03125 6.046875 C 17.5625 6.046875 18.984375 5.550781 20.296875 4.5625 C 21.617188 3.582031 22.28125 2.078125 22.28125 0.046875 L 22.28125 -1.84375 C 20.71875 -0.113281 17.921875 0.75 13.890625 0.75 C 10.191406 0.75 7.144531 -0.554688 4.75 -3.171875 C 2.351562 -5.785156 1.15625 -8.988281 1.15625 -12.78125 C 1.15625 -16.582031 2.351562 -19.796875 4.75 -22.421875 C 7.144531 -25.054688 10.191406 -26.375 13.890625 -26.375 C 17.179688 -26.375 19.925781 -25.359375 22.125 -23.328125 L 22.28125 -23.328125 L 22.28125 -25.625 L 31.125 -25.625 L 31.125 0.703125 C 31.125 4.859375 29.738281 8.066406 26.96875 10.328125 C 24.207031 12.597656 20.5625 13.734375 16.03125 13.734375 C 8.707031 13.734375 3.976562 11.253906 1.84375 6.296875 Z M 12.265625 -17.125 C 11.117188 -16 10.546875 -14.550781 10.546875 -12.78125 C 10.546875 -11.019531 11.09375 -9.582031 12.1875 -8.46875 C 13.289062 -7.351562 14.738281 -6.796875 16.53125 -6.796875 C 18.257812 -6.796875 19.679688 -7.359375 20.796875 -8.484375 C 21.921875 -9.617188 22.484375 -11.050781 22.484375 -12.78125 C 22.484375 -14.550781 21.90625 -16 20.75 -17.125 C 19.601562 -18.257812 18.195312 -18.828125 16.53125 -18.828125 C 14.832031 -18.828125 13.410156 -18.257812 12.265625 -17.125 Z M 12.265625 -17.125 "/></g></g></g><g fill="#000000" fill-opacity="1"><g transform="translate(315.97899, 381.19817)"><g/></g></g><g fill="#000000" fill-opacity="1"><g transform="translate(328.963037, 381.19817)"><g><path d="M 16.640625 -19.125 C 14.972656 -19.125 13.539062 -18.507812 12.34375 -17.28125 C 11.144531 -16.050781 10.546875 -14.570312 10.546875 -12.84375 C 10.546875 -11.070312 11.144531 -9.570312 12.34375 -8.34375 C 13.539062 -7.113281 14.972656 -6.5 16.640625 -6.5 C 17.429688 -6.5 18.1875 -6.597656 18.90625 -6.796875 C 19.625 -6.992188 20.148438 -7.191406 20.484375 -7.390625 L 20.9375 -7.6875 L 23.921875 -1.546875 C 23.691406 -1.378906 23.367188 -1.171875 22.953125 -0.921875 C 22.535156 -0.671875 21.585938 -0.332031 20.109375 0.09375 C 18.628906 0.53125 17.035156 0.75 15.328125 0.75 C 11.566406 0.75 8.265625 -0.570312 5.421875 -3.21875 C 2.578125 -5.863281 1.15625 -9.035156 1.15625 -12.734375 C 1.15625 -16.460938 2.578125 -19.664062 5.421875 -22.34375 C 8.265625 -25.03125 11.566406 -26.375 15.328125 -26.375 C 17.035156 -26.375 18.601562 -26.171875 20.03125 -25.765625 C 21.457031 -25.367188 22.472656 -24.972656 23.078125 -24.578125 L 23.921875 -23.984375 L 20.9375 -17.9375 C 19.832031 -18.726562 18.398438 -19.125 16.640625 -19.125 Z M 16.640625 -19.125 "/></g></g></g><g fill="#000000" fill-opacity="1"><g transform="translate(352.833862, 381.19817)"><g><path d="M 4.75 -3.171875 C 2.351562 -5.785156 1.15625 -8.988281 1.15625 -12.78125 C 1.15625 -16.582031 2.351562 -19.796875 4.75 -22.421875 C 7.144531 -25.054688 10.191406 -26.375 13.890625 -26.375 C 17.285156 -26.375 20.082031 -25.304688 22.28125 -23.171875 L 22.28125 -25.625 L 31.125 -25.625 L 31.125 0 L 22.375 0 L 22.375 -2.890625 L 22.28125 -2.890625 C 20.082031 -0.460938 17.285156 0.75 13.890625 0.75 C 10.191406 0.75 7.144531 -0.554688 4.75 -3.171875 Z M 12.265625 -17.125 C 11.117188 -16 10.546875 -14.550781 10.546875 -12.78125 C 10.546875 -11.019531 11.09375 -9.582031 12.1875 -8.46875 C 13.289062 -7.351562 14.738281 -6.796875 16.53125 -6.796875 C 18.257812 -6.796875 19.679688 -7.359375 20.796875 -8.484375 C 21.921875 -9.617188 22.484375 -11.050781 22.484375 -12.78125 C 22.484375 -14.550781 21.90625 -16 20.75 -17.125 C 19.601562 -18.257812 18.195312 -18.828125 16.53125 -18.828125 C 14.832031 -18.828125 13.410156 -18.257812 12.265625 -17.125 Z M 12.265625 -17.125 "/></g></g></g><g fill="#000000" fill-opacity="1"><g transform="translate(386.293067, 381.19817)"><g><path d="M 3 0 L 3 -25.625 L 11.84375 -25.625 L 11.84375 -22.921875 L 11.9375 -22.921875 C 14.238281 -25.222656 16.6875 -26.375 19.28125 -26.375 C 20.550781 -26.375 21.804688 -26.207031 23.046875 -25.875 C 24.296875 -25.539062 25.492188 -25.023438 26.640625 -24.328125 C 27.796875 -23.628906 28.726562 -22.640625 29.4375 -21.359375 C 30.15625 -20.078125 30.515625 -18.585938 30.515625 -16.890625 L 30.515625 0 L 21.6875 0 L 21.6875 -14.484375 C 21.6875 -15.816406 21.257812 -16.984375 20.40625 -17.984375 C 19.550781 -18.984375 18.441406 -19.484375 17.078125 -19.484375 C 15.742188 -19.484375 14.535156 -18.96875 13.453125 -17.9375 C 12.378906 -16.90625 11.84375 -15.753906 11.84375 -14.484375 L 11.84375 0 Z M 3 0 "/></g></g></g><g fill="#000000" fill-opacity="1"><g transform="translate(418.653611, 381.19817)"><g/></g></g><g fill="#000000" fill-opacity="1"><g transform="translate(431.637658, 381.19817)"><g><path d="M 22.421875 -25.625 L 32.625 -25.625 L 12.484375 12.984375 L 2.296875 12.984375 L 11.140625 -4 L -1 -25.625 L 9.1875 -25.625 L 16.328125 -12.484375 Z M 22.421875 -25.625 "/></g></g></g><g fill="#000000" fill-opacity="1"><g transform="translate(462.599887, 381.19817)"><g><path d="M 5.421875 -3.046875 C 2.578125 -5.578125 1.15625 -8.820312 1.15625 -12.78125 C 1.15625 -16.75 2.632812 -20.003906 5.59375 -22.546875 C 8.5625 -25.097656 12.222656 -26.375 16.578125 -26.375 C 20.878906 -26.375 24.503906 -25.09375 27.453125 -22.53125 C 30.398438 -19.96875 31.875 -16.71875 31.875 -12.78125 C 31.875 -8.851562 30.429688 -5.613281 27.546875 -3.0625 C 24.671875 -0.519531 21.015625 0.75 16.578125 0.75 C 11.984375 0.75 8.265625 -0.515625 5.421875 -3.046875 Z M 12.265625 -17.125 C 11.117188 -16 10.546875 -14.550781 10.546875 -12.78125 C 10.546875 -11.019531 11.09375 -9.582031 12.1875 -8.46875 C 13.289062 -7.351562 14.738281 -6.796875 16.53125 -6.796875 C 18.257812 -6.796875 19.679688 -7.359375 20.796875 -8.484375 C 21.921875 -9.617188 22.484375 -11.050781 22.484375 -12.78125 C 22.484375 -14.550781 21.90625 -16 20.75 -17.125 C 19.601562 -18.257812 18.195312 -18.828125 16.53125 -18.828125 C 14.832031 -18.828125 13.410156 -18.257812 12.265625 -17.125 Z M 12.265625 -17.125 "/></g></g></g><g fill="#000000" fill-opacity="1"><g transform="translate(494.960431, 381.19817)"><g><path d="M 11.34375 -25.625 L 11.34375 -13.4375 C 11.34375 -10.90625 11.722656 -9.101562 12.484375 -8.03125 C 13.253906 -6.96875 14.550781 -6.4375 16.375 -6.4375 C 18.207031 -6.4375 19.507812 -6.96875 20.28125 -8.03125 C 21.050781 -9.101562 21.4375 -10.90625 21.4375 -13.4375 L 21.4375 -25.625 L 30.265625 -25.625 L 30.265625 -11.296875 C 30.265625 -7.023438 29.15625 -3.945312 26.9375 -2.0625 C 24.726562 -0.1875 21.207031 0.75 16.375 0.75 C 11.550781 0.75 8.03125 -0.1875 5.8125 -2.0625 C 3.601562 -3.945312 2.5 -7.023438 2.5 -11.296875 L 2.5 -25.625 Z M 11.34375 -25.625 "/></g></g></g><g fill="#000000" fill-opacity="1"><g transform="translate(91.182051, 444.131569)"><g><path d="M 14.140625 -26.375 C 15.597656 -26.375 17.039062 -26.207031 18.46875 -25.875 C 19.90625 -25.539062 20.976562 -25.207031 21.6875 -24.875 L 22.734375 -24.375 L 19.828125 -18.578125 C 17.828125 -19.648438 15.929688 -20.1875 14.140625 -20.1875 C 13.140625 -20.1875 12.429688 -20.078125 12.015625 -19.859375 C 11.597656 -19.640625 11.390625 -19.226562 11.390625 -18.625 C 11.390625 -18.5 11.40625 -18.367188 11.4375 -18.234375 C 11.46875 -18.097656 11.53125 -17.972656 11.625 -17.859375 C 11.726562 -17.742188 11.820312 -17.644531 11.90625 -17.5625 C 11.988281 -17.476562 12.128906 -17.382812 12.328125 -17.28125 C 12.535156 -17.1875 12.695312 -17.113281 12.8125 -17.0625 C 12.925781 -17.007812 13.113281 -16.929688 13.375 -16.828125 C 13.644531 -16.734375 13.847656 -16.660156 13.984375 -16.609375 C 14.117188 -16.554688 14.34375 -16.476562 14.65625 -16.375 C 14.976562 -16.28125 15.222656 -16.21875 15.390625 -16.1875 C 16.421875 -15.882812 17.316406 -15.550781 18.078125 -15.1875 C 18.847656 -14.820312 19.65625 -14.320312 20.5 -13.6875 C 21.351562 -13.050781 22.007812 -12.25 22.46875 -11.28125 C 22.9375 -10.320312 23.171875 -9.226562 23.171875 -8 C 23.171875 -2.164062 19.128906 0.75 11.046875 0.75 C 9.210938 0.75 7.46875 0.46875 5.8125 -0.09375 C 4.164062 -0.664062 2.976562 -1.234375 2.25 -1.796875 L 1.15625 -2.703125 L 4.75 -8.734375 C 5.007812 -8.503906 5.351562 -8.226562 5.78125 -7.90625 C 6.21875 -7.59375 7.003906 -7.160156 8.140625 -6.609375 C 9.273438 -6.066406 10.257812 -5.796875 11.09375 -5.796875 C 12.925781 -5.796875 13.84375 -6.410156 13.84375 -7.640625 C 13.84375 -8.203125 13.609375 -8.640625 13.140625 -8.953125 C 12.671875 -9.273438 11.878906 -9.632812 10.765625 -10.03125 C 9.648438 -10.4375 8.773438 -10.804688 8.140625 -11.140625 C 6.546875 -11.972656 5.28125 -12.910156 4.34375 -13.953125 C 3.414062 -15.003906 2.953125 -16.398438 2.953125 -18.140625 C 2.953125 -20.734375 3.957031 -22.753906 5.96875 -24.203125 C 7.976562 -25.648438 10.703125 -26.375 14.140625 -26.375 Z M 14.140625 -26.375 "/></g></g></g><g fill="#000000" fill-opacity="1"><g transform="translate(115.102822, 444.131569)"><g><path d="M 4.5 -25.625 L 4.5 -35.171875 L 13.34375 -35.171875 L 13.34375 -25.625 L 18.734375 -25.625 L 18.734375 -18.875 L 13.34375 -18.875 L 13.34375 -10.734375 C 13.34375 -8.367188 14.003906 -7.1875 15.328125 -7.1875 C 15.660156 -7.1875 16.007812 -7.253906 16.375 -7.390625 C 16.75 -7.523438 17.035156 -7.660156 17.234375 -7.796875 L 17.53125 -8 L 19.734375 -0.84375 C 17.835938 0.21875 15.671875 0.75 13.234375 0.75 C 11.566406 0.75 10.132812 0.457031 8.9375 -0.125 C 7.738281 -0.707031 6.832031 -1.488281 6.21875 -2.46875 C 5.601562 -3.457031 5.160156 -4.488281 4.890625 -5.5625 C 4.628906 -6.644531 4.5 -7.804688 4.5 -9.046875 L 4.5 -18.875 L 0.796875 -18.875 L 0.796875 -25.625 Z M 4.5 -25.625 "/></g></g></g><g fill="#000000" fill-opacity="1"><g transform="translate(134.179468, 444.131569)"><g><path d="M 4.75 -3.171875 C 2.351562 -5.785156 1.15625 -8.988281 1.15625 -12.78125 C 1.15625 -16.582031 2.351562 -19.796875 4.75 -22.421875 C 7.144531 -25.054688 10.191406 -26.375 13.890625 -26.375 C 17.285156 -26.375 20.082031 -25.304688 22.28125 -23.171875 L 22.28125 -25.625 L 31.125 -25.625 L 31.125 0 L 22.375 0 L 22.375 -2.890625 L 22.28125 -2.890625 C 20.082031 -0.460938 17.285156 0.75 13.890625 0.75 C 10.191406 0.75 7.144531 -0.554688 4.75 -3.171875 Z M 12.265625 -17.125 C 11.117188 -16 10.546875 -14.550781 10.546875 -12.78125 C 10.546875 -11.019531 11.09375 -9.582031 12.1875 -8.46875 C 13.289062 -7.351562 14.738281 -6.796875 16.53125 -6.796875 C 18.257812 -6.796875 19.679688 -7.359375 20.796875 -8.484375 C 21.921875 -9.617188 22.484375 -11.050781 22.484375 -12.78125 C 22.484375 -14.550781 21.90625 -16 20.75 -17.125 C 19.601562 -18.257812 18.195312 -18.828125 16.53125 -18.828125 C 14.832031 -18.828125 13.410156 -18.257812 12.265625 -17.125 Z M 12.265625 -17.125 "/></g></g></g><g fill="#000000" fill-opacity="1"><g transform="translate(167.638676, 444.131569)"><g><path d="M 22.421875 -25.625 L 32.625 -25.625 L 12.484375 12.984375 L 2.296875 12.984375 L 11.140625 -4 L -1 -25.625 L 9.1875 -25.625 L 16.328125 -12.484375 Z M 22.421875 -25.625 "/></g></g></g><g fill="#000000" fill-opacity="1"><g transform="translate(198.600904, 444.131569)"><g/></g></g><g fill="#000000" fill-opacity="1"><g transform="translate(211.584951, 444.131569)"><g><path d="M 4.75 -3.171875 C 2.351562 -5.785156 1.15625 -8.988281 1.15625 -12.78125 C 1.15625 -16.582031 2.351562 -19.796875 4.75 -22.421875 C 7.144531 -25.054688 10.191406 -26.375 13.890625 -26.375 C 17.285156 -26.375 20.082031 -25.304688 22.28125 -23.171875 L 22.28125 -42.953125 L 31.125 -42.953125 L 31.125 0 L 22.375 0 L 22.375 -2.890625 L 22.28125 -2.890625 C 20.082031 -0.460938 17.285156 0.75 13.890625 0.75 C 10.191406 0.75 7.144531 -0.554688 4.75 -3.171875 Z M 12.265625 -17.125 C 11.117188 -16 10.546875 -14.550781 10.546875 -12.78125 C 10.546875 -11.019531 11.09375 -9.582031 12.1875 -8.46875 C 13.289062 -7.351562 14.738281 -6.796875 16.53125 -6.796875 C 18.257812 -6.796875 19.679688 -7.359375 20.796875 -8.484375 C 21.921875 -9.617188 22.484375 -11.050781 22.484375 -12.78125 C 22.484375 -14.550781 21.90625 -16 20.75 -17.125 C 19.601562 -18.257812 18.195312 -18.828125 16.53125 -18.828125 C 14.832031 -18.828125 13.410156 -18.257812 12.265625 -17.125 Z M 12.265625 -17.125 "/></g></g></g><g fill="#000000" fill-opacity="1"><g transform="translate(245.044155, 444.131569)"><g><path d="M 3.84375 -39.90625 C 4.875 -40.945312 6.101562 -41.46875 7.53125 -41.46875 C 8.96875 -41.46875 10.203125 -40.945312 11.234375 -39.90625 C 12.265625 -38.875 12.78125 -37.640625 12.78125 -36.203125 C 12.78125 -34.773438 12.265625 -33.546875 11.234375 -32.515625 C 10.203125 -31.484375 8.96875 -30.96875 7.53125 -30.96875 C 6.101562 -30.96875 4.875 -31.484375 3.84375 -32.515625 C 2.8125 -33.546875 2.296875 -34.773438 2.296875 -36.203125 C 2.296875 -37.640625 2.8125 -38.875 3.84375 -39.90625 Z M 3 -25.625 L 3 0 L 11.84375 0 L 11.84375 -25.625 Z M 3 -25.625 "/></g></g></g><g fill="#000000" fill-opacity="1"><g transform="translate(259.476441, 444.131569)"><g><path d="M 14.140625 -26.375 C 15.597656 -26.375 17.039062 -26.207031 18.46875 -25.875 C 19.90625 -25.539062 20.976562 -25.207031 21.6875 -24.875 L 22.734375 -24.375 L 19.828125 -18.578125 C 17.828125 -19.648438 15.929688 -20.1875 14.140625 -20.1875 C 13.140625 -20.1875 12.429688 -20.078125 12.015625 -19.859375 C 11.597656 -19.640625 11.390625 -19.226562 11.390625 -18.625 C 11.390625 -18.5 11.40625 -18.367188 11.4375 -18.234375 C 11.46875 -18.097656 11.53125 -17.972656 11.625 -17.859375 C 11.726562 -17.742188 11.820312 -17.644531 11.90625 -17.5625 C 11.988281 -17.476562 12.128906 -17.382812 12.328125 -17.28125 C 12.535156 -17.1875 12.695312 -17.113281 12.8125 -17.0625 C 12.925781 -17.007812 13.113281 -16.929688 13.375 -16.828125 C 13.644531 -16.734375 13.847656 -16.660156 13.984375 -16.609375 C 14.117188 -16.554688 14.34375 -16.476562 14.65625 -16.375 C 14.976562 -16.28125 15.222656 -16.21875 15.390625 -16.1875 C 16.421875 -15.882812 17.316406 -15.550781 18.078125 -15.1875 C 18.847656 -14.820312 19.65625 -14.320312 20.5 -13.6875 C 21.351562 -13.050781 22.007812 -12.25 22.46875 -11.28125 C 22.9375 -10.320312 23.171875 -9.226562 23.171875 -8 C 23.171875 -2.164062 19.128906 0.75 11.046875 0.75 C 9.210938 0.75 7.46875 0.46875 5.8125 -0.09375 C 4.164062 -0.664062 2.976562 -1.234375 2.25 -1.796875 L 1.15625 -2.703125 L 4.75 -8.734375 C 5.007812 -8.503906 5.351562 -8.226562 5.78125 -7.90625 C 6.21875 -7.59375 7.003906 -7.160156 8.140625 -6.609375 C 9.273438 -6.066406 10.257812 -5.796875 11.09375 -5.796875 C 12.925781 -5.796875 13.84375 -6.410156 13.84375 -7.640625 C 13.84375 -8.203125 13.609375 -8.640625 13.140625 -8.953125 C 12.671875 -9.273438 11.878906 -9.632812 10.765625 -10.03125 C 9.648438 -10.4375 8.773438 -10.804688 8.140625 -11.140625 C 6.546875 -11.972656 5.28125 -12.910156 4.34375 -13.953125 C 3.414062 -15.003906 2.953125 -16.398438 2.953125 -18.140625 C 2.953125 -20.734375 3.957031 -22.753906 5.96875 -24.203125 C 7.976562 -25.648438 10.703125 -26.375 14.140625 -26.375 Z M 14.140625 -26.375 "/></g></g></g><g fill="#000000" fill-opacity="1"><g transform="translate(283.397213, 444.131569)"><g><path d="M 16.640625 -19.125 C 14.972656 -19.125 13.539062 -18.507812 12.34375 -17.28125 C 11.144531 -16.050781 10.546875 -14.570312 10.546875 -12.84375 C 10.546875 -11.070312 11.144531 -9.570312 12.34375 -8.34375 C 13.539062 -7.113281 14.972656 -6.5 16.640625 -6.5 C 17.429688 -6.5 18.1875 -6.597656 18.90625 -6.796875 C 19.625 -6.992188 20.148438 -7.191406 20.484375 -7.390625 L 20.9375 -7.6875 L 23.921875 -1.546875 C 23.691406 -1.378906 23.367188 -1.171875 22.953125 -0.921875 C 22.535156 -0.671875 21.585938 -0.332031 20.109375 0.09375 C 18.628906 0.53125 17.035156 0.75 15.328125 0.75 C 11.566406 0.75 8.265625 -0.570312 5.421875 -3.21875 C 2.578125 -5.863281 1.15625 -9.035156 1.15625 -12.734375 C 1.15625 -16.460938 2.578125 -19.664062 5.421875 -22.34375 C 8.265625 -25.03125 11.566406 -26.375 15.328125 -26.375 C 17.035156 -26.375 18.601562 -26.171875 20.03125 -25.765625 C 21.457031 -25.367188 22.472656 -24.972656 23.078125 -24.578125 L 23.921875 -23.984375 L 20.9375 -17.9375 C 19.832031 -18.726562 18.398438 -19.125 16.640625 -19.125 Z M 16.640625 -19.125 "/></g></g></g><g fill="#000000" fill-opacity="1"><g transform="translate(307.268039, 444.131569)"><g><path d="M 3.84375 -39.90625 C 4.875 -40.945312 6.101562 -41.46875 7.53125 -41.46875 C 8.96875 -41.46875 10.203125 -40.945312 11.234375 -39.90625 C 12.265625 -38.875 12.78125 -37.640625 12.78125 -36.203125 C 12.78125 -34.773438 12.265625 -33.546875 11.234375 -32.515625 C 10.203125 -31.484375 8.96875 -30.96875 7.53125 -30.96875 C 6.101562 -30.96875 4.875 -31.484375 3.84375 -32.515625 C 2.8125 -33.546875 2.296875 -34.773438 2.296875 -36.203125 C 2.296875 -37.640625 2.8125 -38.875 3.84375 -39.90625 Z M 3 -25.625 L 3 0 L 11.84375 0 L 11.84375 -25.625 Z M 3 -25.625 "/></g></g></g><g fill="#000000" fill-opacity="1"><g transform="translate(321.700313, 444.131569)"><g><path d="M 29.375 -22.453125 C 31.769531 -19.835938 32.96875 -16.628906 32.96875 -12.828125 C 32.96875 -9.035156 31.769531 -5.820312 29.375 -3.1875 C 26.976562 -0.5625 23.929688 0.75 20.234375 0.75 C 16.835938 0.75 14.039062 -0.316406 11.84375 -2.453125 L 11.84375 12.984375 L 3 12.984375 L 3 -25.625 L 11.734375 -25.625 L 11.734375 -22.734375 L 11.84375 -22.734375 C 14.039062 -25.160156 16.835938 -26.375 20.234375 -26.375 C 23.929688 -26.375 26.976562 -25.066406 29.375 -22.453125 Z M 21.84375 -8.484375 C 23 -9.617188 23.578125 -11.066406 23.578125 -12.828125 C 23.578125 -14.597656 23.023438 -16.039062 21.921875 -17.15625 C 20.828125 -18.269531 19.378906 -18.828125 17.578125 -18.828125 C 15.847656 -18.828125 14.425781 -18.257812 13.3125 -17.125 C 12.195312 -16 11.640625 -14.570312 11.640625 -12.84375 C 11.640625 -11.070312 12.210938 -9.617188 13.359375 -8.484375 C 14.503906 -7.359375 15.910156 -6.796875 17.578125 -6.796875 C 19.273438 -6.796875 20.695312 -7.359375 21.84375 -8.484375 Z M 21.84375 -8.484375 "/></g></g></g><g fill="#000000" fill-opacity="1"><g transform="translate(355.159518, 444.131569)"><g><path d="M 3 0 L 3 -42.953125 L 11.84375 -42.953125 L 11.84375 0 Z M 3 0 "/></g></g></g><g fill="#000000" fill-opacity="1"><g transform="translate(369.342095, 444.131569)"><g><path d="M 3.84375 -39.90625 C 4.875 -40.945312 6.101562 -41.46875 7.53125 -41.46875 C 8.96875 -41.46875 10.203125 -40.945312 11.234375 -39.90625 C 12.265625 -38.875 12.78125 -37.640625 12.78125 -36.203125 C 12.78125 -34.773438 12.265625 -33.546875 11.234375 -32.515625 C 10.203125 -31.484375 8.96875 -30.96875 7.53125 -30.96875 C 6.101562 -30.96875 4.875 -31.484375 3.84375 -32.515625 C 2.8125 -33.546875 2.296875 -34.773438 2.296875 -36.203125 C 2.296875 -37.640625 2.8125 -38.875 3.84375 -39.90625 Z M 3 -25.625 L 3 0 L 11.84375 0 L 11.84375 -25.625 Z M 3 -25.625 "/></g></g></g><g fill="#000000" fill-opacity="1"><g transform="translate(383.77437, 444.131569)"><g><path d="M 3 0 L 3 -25.625 L 11.84375 -25.625 L 11.84375 -22.921875 L 11.9375 -22.921875 C 14.238281 -25.222656 16.6875 -26.375 19.28125 -26.375 C 20.550781 -26.375 21.804688 -26.207031 23.046875 -25.875 C 24.296875 -25.539062 25.492188 -25.023438 26.640625 -24.328125 C 27.796875 -23.628906 28.726562 -22.640625 29.4375 -21.359375 C 30.15625 -20.078125 30.515625 -18.585938 30.515625 -16.890625 L 30.515625 0 L 21.6875 0 L 21.6875 -14.484375 C 21.6875 -15.816406 21.257812 -16.984375 20.40625 -17.984375 C 19.550781 -18.984375 18.441406 -19.484375 17.078125 -19.484375 C 15.742188 -19.484375 14.535156 -18.96875 13.453125 -17.9375 C 12.378906 -16.90625 11.84375 -15.753906 11.84375 -14.484375 L 11.84375 0 Z M 3 0 "/></g></g></g><g fill="#000000" fill-opacity="1"><g transform="translate(416.134914, 444.131569)"><g><path d="M 28.921875 -11.59375 L 10.34375 -11.59375 C 10.34375 -9.789062 10.925781 -8.457031 12.09375 -7.59375 C 13.257812 -6.726562 14.523438 -6.296875 15.890625 -6.296875 C 17.316406 -6.296875 18.445312 -6.484375 19.28125 -6.859375 C 20.113281 -7.242188 21.0625 -8.003906 22.125 -9.140625 L 28.515625 -5.9375 C 25.859375 -1.476562 21.429688 0.75 15.234375 0.75 C 11.367188 0.75 8.054688 -0.570312 5.296875 -3.21875 C 2.535156 -5.863281 1.15625 -9.050781 1.15625 -12.78125 C 1.15625 -16.507812 2.535156 -19.707031 5.296875 -22.375 C 8.054688 -25.039062 11.367188 -26.375 15.234375 -26.375 C 19.296875 -26.375 22.597656 -25.195312 25.140625 -22.84375 C 27.691406 -20.5 28.96875 -17.144531 28.96875 -12.78125 C 28.96875 -12.1875 28.953125 -11.789062 28.921875 -11.59375 Z M 10.59375 -16.484375 L 20.328125 -16.484375 C 20.128906 -17.816406 19.601562 -18.835938 18.75 -19.546875 C 17.90625 -20.265625 16.816406 -20.625 15.484375 -20.625 C 14.015625 -20.625 12.847656 -20.238281 11.984375 -19.46875 C 11.117188 -18.707031 10.65625 -17.710938 10.59375 -16.484375 Z M 10.59375 -16.484375 "/></g></g></g><g fill="#000000" fill-opacity="1"><g transform="translate(445.598957, 444.131569)"><g><path d="M 4.75 -3.171875 C 2.351562 -5.785156 1.15625 -8.988281 1.15625 -12.78125 C 1.15625 -16.582031 2.351562 -19.796875 4.75 -22.421875 C 7.144531 -25.054688 10.191406 -26.375 13.890625 -26.375 C 17.285156 -26.375 20.082031 -25.304688 22.28125 -23.171875 L 22.28125 -42.953125 L 31.125 -42.953125 L 31.125 0 L 22.375 0 L 22.375 -2.890625 L 22.28125 -2.890625 C 20.082031 -0.460938 17.285156 0.75 13.890625 0.75 C 10.191406 0.75 7.144531 -0.554688 4.75 -3.171875 Z M 12.265625 -17.125 C 11.117188 -16 10.546875 -14.550781 10.546875 -12.78125 C 10.546875 -11.019531 11.09375 -9.582031 12.1875 -8.46875 C 13.289062 -7.351562 14.738281 -6.796875 16.53125 -6.796875 C 18.257812 -6.796875 19.679688 -7.359375 20.796875 -8.484375 C 21.921875 -9.617188 22.484375 -11.050781 22.484375 -12.78125 C 22.484375 -14.550781 21.90625 -16 20.75 -17.125 C 19.601562 -18.257812 18.195312 -18.828125 16.53125 -18.828125 C 14.832031 -18.828125 13.410156 -18.257812 12.265625 -17.125 Z M 12.265625 -17.125 "/></g></g></g><g fill="#000000" fill-opacity="1"><g transform="translate(479.058162, 444.131569)"><g><path d="M 8.484375 -28.96875 L 1.15625 -32.515625 C 1.15625 -32.648438 1.253906 -33.007812 1.453125 -33.59375 C 1.648438 -34.175781 2.046875 -34.957031 2.640625 -35.9375 C 3.242188 -36.925781 4.003906 -37.851562 4.921875 -38.71875 C 5.835938 -39.582031 7.128906 -40.335938 8.796875 -40.984375 C 10.460938 -41.628906 12.34375 -41.953125 14.4375 -41.953125 C 18.300781 -41.953125 21.628906 -40.820312 24.421875 -38.5625 C 27.222656 -36.300781 28.625 -33.453125 28.625 -30.015625 C 28.625 -25.785156 25.8125 -22.472656 20.1875 -20.078125 C 19.414062 -19.742188 18.929688 -19.285156 18.734375 -18.703125 C 18.535156 -18.117188 18.4375 -17.3125 18.4375 -16.28125 L 18.4375 -13.484375 L 10.1875 -13.484375 L 10.1875 -18.9375 C 10.1875 -19.832031 10.21875 -20.535156 10.28125 -21.046875 C 10.351562 -21.566406 10.570312 -22.132812 10.9375 -22.75 C 11.300781 -23.363281 11.832031 -23.90625 12.53125 -24.375 C 13.070312 -24.707031 13.789062 -25.097656 14.6875 -25.546875 C 15.582031 -25.992188 16.242188 -26.351562 16.671875 -26.625 C 17.109375 -26.894531 17.507812 -27.316406 17.875 -27.890625 C 18.25 -28.472656 18.4375 -29.179688 18.4375 -30.015625 C 18.4375 -31.210938 18.039062 -32.195312 17.25 -32.96875 C 16.46875 -33.738281 15.515625 -34.125 14.390625 -34.125 C 12.753906 -34.125 11.441406 -33.597656 10.453125 -32.546875 C 9.472656 -31.492188 8.816406 -30.300781 8.484375 -28.96875 Z M 14.28125 -10.6875 C 15.882812 -10.6875 17.242188 -10.128906 18.359375 -9.015625 C 19.472656 -7.898438 20.03125 -6.546875 20.03125 -4.953125 C 20.03125 -3.378906 19.472656 -2.035156 18.359375 -0.921875 C 17.242188 0.191406 15.882812 0.75 14.28125 0.75 C 12.71875 0.75 11.378906 0.191406 10.265625 -0.921875 C 9.148438 -2.035156 8.59375 -3.378906 8.59375 -4.953125 C 8.59375 -6.546875 9.148438 -7.898438 10.265625 -9.015625 C 11.378906 -10.128906 12.71875 -10.6875 14.28125 -10.6875 Z M 14.28125 -10.6875 "/></g></g></g></svg>